# xmcd
#
# Track frame offsets: 
#        150
#        17005
#        32380
#        43035
#        56960
#        69277
#        86457
#        105287
#        120290
#        133640
#        151155
#        164245
#        178877
#        197125
#        211940
#        224147
#        245687
#        265900
#        284902
#        301645
#
# Disc length: 4273 seconds
#
# Revision: 1
# Processed by: cddbd v1.5.2PL0 Copyright (c) Steve Scherf et al.
# Submitted via: ExactAudioCopy v1.0b4
#
DISCID=2310af14
DTITLE=Almir - Almir - 20 Super Sucessos
DYEAR=1900
DGENRE=Other
TTITLE0=01. A Noite Do Meu Bem - Matriz Ou Filial - Ela Me Disse Assim
TTITLE0=(Vá Embora)
TTITLE1=02. Esta Noite Eu Queria Que O Mundo Acabasse - Quem É
TTITLE2=03. Ouça - Meu Mundo Caiu
TTITLE3=04. Chão De Estrelas
TTITLE4=05. Orgulho
TTITLE5=06. Segredo - Tudo Acabado
TTITLE6=07. Fracasso - Cadeira Vazia
TTITLE7=08. Ninguém Me Ama
TTITLE8=09. Marina - Nem Eu
TTITLE9=10. As Rosas Não Falam - Risque - Adeus
TTITLE10=11. Alguém Me Disse
TTITLE11=12. Cabelos Brancos
TTITLE12=13. Molambo - Fim De Noite - Devaneio
TTITLE13=14. Que Será
TTITLE14=15. Caminhemos
TTITLE15=16. Noite Cheia De Estrelas - Coração Materno
TTITLE16=17. Súplica Cearense - Maringá - Peguei Um Ita No Norte
TTITLE17=18. Mágoas De Cabloco - Sertyaneja - Amigo Leal
TTITLE18=19. Nono Mandamento - Lama
TTITLE19=20. Último Desejo
EXTD=
EXTT0=
EXTT1=
EXTT2=
EXTT3=
EXTT4=
EXTT5=
EXTT6=
EXTT7=
EXTT8=
EXTT9=
EXTT10=
EXTT11=
EXTT12=
EXTT13=
EXTT14=
EXTT15=
EXTT16=
EXTT17=
EXTT18=
EXTT19=
PLAYORDER=
